General 
http://www.imdb.com/title/tt0097165/

Complete name: E:  DPS  Dead.Poets.Society.1989.720p.HDTV.Rus.Eng.mkv
Format: Matroska
File size: 4.16 GiB
Duration: 2h 3mn
Overall bit rate: 4,831 Kbps
Encoded date: UTC 2010-06-07 10:30:09
Writing application: mkvmerge v2.4.0 ('Fumbling Towards Ecstasy') built on Oct Nov. 2008 20:13:15
Writing library: libebml v0.7.7 + libmatroska v0.8.1

Video
ID: 1
Format: AVC
Format / Info: Advanced Video Codec
Format profile: High@L4.1
Format settings, CABAC: Yes
Format settings, ReFrames: 9 frames
Muxing mode: Container profile = Unknown@4.1
Codec ID: V_MPEG4/ISO/AVC
Duration: 2h 3mn
Bit rate: 3327 Kbps
Nominal bit rate: 3423 Kbps
Width: 1280 pixels
Height: 692 pixels
Display aspect ratio: 1.850
Frame rate: 25.000 fps
Resolution: 24 bits
Colorimetry: 4:2:0
Scan type: Progressive
Bits / (Pixel * Frame): 0.150
Stream size: 2.86 GiB (69%)
Writing library: x264 core 98 r1629 2e81ce1
Encoding settings: cabac = 1 / ref = 9 / deblock = 1: -3: -3 / analyse = 0x3: 0x133 / me = umh / subme = 10 / psy = 1 / psy_rd = 1.20:0.00 / mixed_ref = 1 / me_range = 32 / chroma_me = 1 / trellis = 2 / 8x8dct = 1 / cqm = 0 / deadzone = 21,11 / fast_pskip = 1 / chroma_qp_offset =- 2 / threads = 6 / sliced_threads = 0 / nr = 0 / decimate = 1 / interlaced = 0 / constrained_intra = 0 / bframes = 5 / b_pyramid = 2 / b_adapt = 2 / b_bias = 0 / direct = 3 / weightb = 1 / weightp = 2 / keyint = 250 / keyint_min = 25 / scenecut = 40 / intra_refresh = 0 / rc_lookahead = 40 / rc = 2pass / mbtree = 1 / bitrate = 3423 / ratetol = 1.0 / qcomp = 0.60 / qpmin = 10 / qpmax = 51 / qpstep = 4 / cplxblur = 20.0 / qblur = 0.5 / ip_ratio = 1.40 / aq = 1:1.20
Language: English

Audio # 1
ID: 2
Format: AC-3
Format / Info: Audio Coding 3
Codec ID: A_AC3
Duration: 2h 3mn
Bit rate mode: Constant
Bit rate: 448 Kbps
Channel (s): 6 channels
Channel positions: Front: LCR, Surround: LR, LFE
Sampling rate: 48.0 KHz
Stream size: 395 MiB (9%)
Title: Zakadr 5.1
Language: Russian

Audio # 2
ID: 3
Format: AC-3
Format / Info: Audio Coding 3
Codec ID: A_AC3
Duration: 2h 3mn
Bit rate mode: Constant
Bit rate: 384 Kbps
Channel (s): 6 channels
Channel positions: Front: LCR, Surround: LR, LFE
Sampling rate: 48.0 KHz
Stream size: 338 MiB (8%)
Title: Mihalev
Language: Russian

Audio # 3
ID: 4
Format: AC-3
Format / Info: Audio Coding 3
Codec ID: A_AC3
Duration: 2h 3mn
Bit rate mode: Constant
Bit rate: 192 Kbps
Channel (s): 2 channels
Channel positions: LR
Sampling rate: 48.0 KHz
Stream size: 169 MiB (4%)
Title: Zakadr 2.0
Language: Russian

Audio # 4
ID: 5
Format: AC-3
Format / Info: Audio Coding 3
Codec ID: A_AC3
Duration: 2h 3mn
Bit rate mode: Constant
Bit rate: 384 Kbps
Channel (s): 6 channels
Channel positions: Front: LCR, Surround: LR, LFE
Sampling rate: 48.0 KHz
Stream size: 338 MiB (8%)
Title: English
Language: English

Text # 1
ID: 6
Format: UTF-8
Codec ID: S_TEXT/UTF8
Codec ID / Info: UTF-8 Plain Text
Title: Russian
Language: Russian

Text # 2
ID: 7
Format: ASS
Codec ID: S_TEXT / ASS
Codec ID / Info: Advanced Sub Station Alpha
Title: English
Language: English